<svg width="20" height="20" viewBox="0 0 20 20" fill="none" xmlns="http://www.w3.org/2000/svg">
<path d="M8.11958 6.5016C8.30558 6.378 8.53478 6.2664 8.79998 6.1812V8.2188C8.55965 8.14347 8.33073 8.03568 8.11958 7.8984C7.68398 7.608 7.59998 7.3368 7.59998 7.2C7.59998 7.0632 7.68398 6.792 8.11958 6.5016ZM11.2 13.0188V10.9812C11.464 11.0664 11.6944 11.178 11.8804 11.3016C12.3172 11.5932 12.4 11.8632 12.4 12C12.4 12.1368 12.316 12.408 11.8804 12.6984C11.6692 12.8357 11.4403 12.9435 11.2 13.0188Z" fill="#445EDC"/>
<path fill-rule="evenodd" clip-rule="evenodd" d="M9.99999 19.2C12.5461 19.2 14.9879 18.1886 16.7882 16.3882C18.5886 14.5879 19.6 12.1461 19.6 9.6C19.6 7.05392 18.5886 4.61212 16.7882 2.81178C14.9879 1.01143 12.5461 0 9.99999 0C7.45392 0 5.01212 1.01143 3.21177 2.81178C1.41142 4.61212 0.399994 7.05392 0.399994 9.6C0.399994 12.1461 1.41142 14.5879 3.21177 16.3882C5.01212 18.1886 7.45392 19.2 9.99999 19.2ZM11.2 3.6C11.2 3.28174 11.0736 2.97652 10.8485 2.75147C10.6235 2.52643 10.3183 2.4 9.99999 2.4C9.68173 2.4 9.37651 2.52643 9.15147 2.75147C8.92642 2.97652 8.79999 3.28174 8.79999 3.6V3.7104C8.0832 3.838 7.3993 4.10813 6.78879 4.5048C5.92239 5.0808 5.19999 6.0108 5.19999 7.2C5.19999 8.388 5.92239 9.318 6.78879 9.8952C7.36479 10.2792 8.05359 10.5492 8.79999 10.6896V13.0188C8.33079 12.8664 7.98399 12.6384 7.78839 12.414C7.68688 12.2894 7.56137 12.1865 7.41933 12.1114C7.27728 12.0362 7.12159 11.9904 6.96149 11.9765C6.80139 11.9627 6.64013 11.9811 6.4873 12.0308C6.33447 12.0805 6.19317 12.1603 6.07178 12.2656C5.9504 12.3709 5.8514 12.4996 5.78066 12.6438C5.70993 12.7881 5.66889 12.9452 5.66 13.1056C5.6511 13.2661 5.67452 13.4267 5.72887 13.5779C5.78322 13.7291 5.86739 13.8679 5.97639 13.986C6.65079 14.7648 7.67199 15.2772 8.79999 15.4896V15.6C8.79999 15.9183 8.92642 16.2235 9.15147 16.4485C9.37651 16.6736 9.68173 16.8 9.99999 16.8C10.3183 16.8 10.6235 16.6736 10.8485 16.4485C11.0736 16.2235 11.2 15.9183 11.2 15.6V15.4896C11.9168 15.362 12.6007 15.0919 13.2112 14.6952C14.0776 14.1192 14.8 13.1892 14.8 12C14.8 10.812 14.0776 9.882 13.2112 9.3048C12.6007 8.90813 11.9168 8.638 11.2 8.5104V6.1812C11.6692 6.3336 12.016 6.5616 12.2116 6.786C12.3141 6.90758 12.4397 7.00758 12.5811 7.08019C12.7226 7.15281 12.877 7.19659 13.0355 7.20899C13.194 7.2214 13.3534 7.20218 13.5045 7.15246C13.6555 7.10273 13.7951 7.02349 13.9152 6.91934C14.0354 6.81519 14.1336 6.6882 14.2042 6.54576C14.2749 6.40331 14.3165 6.24825 14.3267 6.08958C14.3369 5.93092 14.3154 5.7718 14.2636 5.62149C14.2118 5.47118 14.1306 5.33267 14.0248 5.214C13.3492 4.4352 12.3292 3.9228 11.2 3.7104V3.6Z" fill="#445EDC"/>
</svg>
