<svg width="24" height="24" viewBox="0 0 24 24" fill="none" xmlns="http://www.w3.org/2000/svg">
<rect width="24" height="24" rx="4" fill="#445EDC"/>
<path d="M19 12C19 15.8664 15.8664 19 12 19C8.13359 19 5 15.8664 5 12C5 8.13359 8.13359 5 12 5C15.8664 5 19 8.13359 19 12ZM6.57801 10.2527L6.83395 10.7258C7.06089 11.1227 7.43411 11.4152 7.87383 11.5406L9.43242 11.9918C9.92734 12.1258 10.25 12.5551 10.25 13.0445V14.1355C10.25 14.4363 10.4195 14.7098 10.6875 14.8191C10.9555 14.9777 11.125 15.2512 11.125 15.552V16.6184C11.125 17.0449 11.5324 17.3512 11.9426 17.2336C12.3855 17.1078 12.7246 16.7332 12.8367 16.3121L12.9133 16.0059C13.0281 15.5437 13.3289 15.1473 13.7418 14.9094L13.9633 14.7836C14.3734 14.5512 14.625 14.1164 14.625 13.6434V13.4191C14.625 13.0691 14.4855 12.7355 14.2395 12.4895L14.1355 12.3855C13.8895 12.1395 13.5531 11.9754 13.2059 11.9754H12.0027C11.7238 11.9754 11.423 11.9207 11.1578 11.7703L10.2145 11.2289C10.0969 11.1633 10.0066 11.0539 9.96563 10.9254C9.87813 10.6629 9.9957 10.3785 10.2418 10.2527L10.4059 10.1734C10.5863 10.0832 10.7941 10.0668 10.9637 10.1324L11.6227 10.343C11.8441 10.4168 12.0902 10.332 12.2215 10.1379C12.35 9.94375 12.3363 9.68945 12.1887 9.51172L11.8168 9.06875C11.5434 8.74063 11.5461 8.26211 11.825 7.93945L12.2543 7.43688C12.4949 7.15605 12.5332 6.75437 12.35 6.43336L12.2844 6.31961C12.1668 6.31496 12.0957 6.3125 12 6.3125C9.45977 6.3125 7.30781 7.97773 6.57801 10.2527ZM16.9656 9.22461L16.2656 9.50625C15.8363 9.67852 15.6148 10.1543 15.7598 10.5945L16.2219 11.9809C16.3176 12.2652 16.55 12.4812 16.8398 12.5551L17.6383 12.752C17.6711 12.5059 17.6875 12.2543 17.6875 12C17.6875 10.9938 17.425 10.0477 16.9656 9.22461Z" fill="white"/>
</svg>
