<svg width="24" height="24" viewBox="0 0 24 24" fill="none" xmlns="http://www.w3.org/2000/svg">
<rect width="24" height="24" rx="4" fill="#445EDC"/>
<path d="M6 8C6 7.44772 6.44772 7 7 7H17C17.5523 7 18 7.44772 18 8C18 8.55228 17.5523 9 17 9H7C6.44772 9 6 8.55228 6 8ZM6 12C6 11.4477 6.44772 11 7 11H17C17.5523 11 18 11.4477 18 12C18 12.5523 17.5523 13 17 13H7C6.44772 13 6 12.5523 6 12ZM6 16C6 15.4477 6.44772 15 7 15H12.6364C13.1886 15 13.6364 15.4477 13.6364 16C13.6364 16.5523 13.1886 17 12.6364 17H7C6.44771 17 6 16.5523 6 16Z" fill="white"/>
</svg>
