<svg width="28" height="25" viewBox="0 0 28 25" fill="none" xmlns="http://www.w3.org/2000/svg">
<defs>
<linearGradient id="paint0_linear_679_400" x1="1.42782" y1="16.0154" x2="8.22276" y2="21.7331" gradientUnits="userSpaceOnUse">
<stop stop-color="#0BDEC5"/>
<stop offset="1" stop-color="#4965EA"/>
</linearGradient>
</defs>
<ellipse rx="1.49249" ry="1.7002" transform="matrix(0.966359 0.257198 -0.260449 0.965488 5.25102 8.315)" fill="#74A3FF"/>
<ellipse rx="1.49249" ry="1.7002" transform="matrix(0.966359 0.257198 -0.260449 0.965488 17.9952 10.4833)" fill="#4965EA"/>
<ellipse rx="1.49249" ry="1.7002" transform="matrix(0.966359 0.257198 -0.260449 0.965488 17.9983 10.0377)" fill="#4965EA"/>
<ellipse rx="2.82721" ry="3.22069" transform="matrix(0.966359 0.257198 -0.260449 0.965488 11.6268 9.41738)" fill="#74A3FF"/>
<path d="M8.13839 12.148C10.8163 12.1598 13.1437 10.8645 15.4708 9.56818C18.0079 8.1551 20.5449 6.74171 23.5398 7.02557C24.1216 7.08073 24.5795 7.52229 24.7306 8.08246L27.3259 17.7033C27.5261 18.4455 26.8572 19.1493 26.0815 19.1461C23.4046 19.1331 21.0771 20.4281 18.7497 21.7231C16.1847 23.1447 13.6478 24.5587 10.68 24.2669C10.098 24.2122 9.64161 23.7712 9.48999 23.2092L6.89501 13.5895C6.69473 12.8471 7.36423 12.1444 8.13839 12.148ZM17.8864 18.6348C19.2979 18.2592 20.0581 16.6258 19.6066 14.9521C19.1627 13.3064 17.6821 12.2694 16.2706 12.6451C14.9155 13.0058 14.1271 14.6467 14.571 16.2924C15.0225 17.966 16.5313 18.9955 17.8864 18.6348Z" fill="#0BDEC5"/>
<ellipse rx="2.82721" ry="3.22069" transform="matrix(0.966359 -0.257198 0.260449 0.965488 17.135 15.5981)" fill="#2CF4DC"/>
<ellipse rx="1.49249" ry="1.7002" transform="matrix(0.966359 -0.257198 0.260449 0.965488 11.063 18.0412)" fill="#2CF4DC"/>
<ellipse rx="1.49249" ry="1.7002" transform="matrix(0.966359 -0.257198 0.260449 0.965488 23.1985 13.5842)" fill="#2CF4DC"/>
<path fill-rule="evenodd" clip-rule="evenodd" d="M1.72515 15.2778L4.44369 16.898C4.68517 17.0419 4.76348 17.353 4.61859 17.5929C4.4737 17.8327 4.16048 17.9105 3.91899 17.7666L2.63054 16.9987C2.89622 18.0844 3.2047 18.8233 3.73579 19.3736C4.27161 19.9288 5.08437 20.3398 6.4716 20.6446L5.87934 19.9346C5.69966 19.7192 5.7298 19.4 5.94665 19.2215C6.1635 19.043 6.48495 19.0729 6.66463 19.2883L8.47766 21.4618L6.17861 23.2517C5.95696 23.4242 5.63645 23.3856 5.46272 23.1655C5.289 22.9453 5.32785 22.627 5.5495 22.4544L6.52866 21.6921C4.88534 21.3632 3.77129 20.8742 2.9996 20.0745C2.30027 19.3499 1.92906 18.4148 1.64702 17.2718L0.938901 18.3659C0.786615 18.6012 0.471125 18.6693 0.234235 18.5181C-0.00265452 18.3668 -0.0712392 18.0534 0.0810471 17.8181L1.72515 15.2778Z" fill="url(#paint0_linear_679_400)"/>
<path d="M5.59441 1.97964C7.90765 3.31983 10.5752 3.35389 13.2431 3.38702C16.1516 3.42329 19.0602 3.45926 21.5109 5.19248C21.987 5.52918 22.1613 6.13901 22.0102 6.69917L19.4149 16.32C19.2147 17.0622 18.2811 17.3395 17.6109 16.9515C15.2992 15.6107 12.6317 15.5763 9.96419 15.542C7.02726 15.4991 4.1185 15.4638 1.69515 13.7372C1.21869 13.4007 1.04541 12.7922 1.19702 12.2301L3.792 2.6105C3.99228 1.86806 4.9258 1.59202 5.59441 1.97964ZM10.7711 12.4387C12.1826 12.8144 13.6632 11.7774 14.1147 10.1037C14.5586 8.45799 13.7984 6.82459 12.3869 6.44892C11.0318 6.08825 9.52302 7.11775 9.07907 8.76346C8.62759 10.4371 9.41599 12.078 10.7711 12.4387Z" fill="#4965EA"/>
</svg>
