<svg width="14" height="9" viewBox="0 0 14 9" fill="none" xmlns="http://www.w3.org/2000/svg">
<path d="M4.49415 0.555175C4.75406 0.555175 4.97133 0.64452 5.14596 0.823209C5.32059 1.00596 5.4079 1.2476 5.4079 1.54812C5.4079 1.84864 5.32059 2.08825 5.14596 2.26694C4.97133 2.44969 4.75406 2.54106 4.49415 2.54106C4.23424 2.54106 4.01697 2.44969 3.84234 2.26694C3.66771 2.08825 3.5804 1.84864 3.5804 1.54812C3.5804 1.2476 3.66771 1.00596 3.84234 0.823209C4.01697 0.64452 4.23424 0.555175 4.49415 0.555175ZM9.51979 0.555176C9.7797 0.555176 9.99697 0.64452 10.1716 0.82321C10.3462 1.00596 10.4335 1.2476 10.4335 1.54812C10.4335 1.84864 10.3462 2.08825 10.1716 2.26694C9.99697 2.44969 9.7797 2.54106 9.51979 2.54106C9.25988 2.54106 9.04261 2.44969 8.86798 2.26694C8.69335 2.08825 8.60604 1.84864 8.60604 1.54812C8.60604 1.2476 8.69335 1.00596 8.86798 0.82321C9.04261 0.64452 9.25988 0.555176 9.51979 0.555176Z" fill="white"/>
<path d="M6.93299 5.0883L7.06701 5.0883C7.92391 5.0883 8.70161 5.17764 9.40013 5.35633C10.0986 5.53908 10.7119 5.77869 11.2398 6.07515C11.7718 6.37567 12.2125 6.70259 12.5617 7.05591C12.911 7.40923 13.1628 7.76052 13.3171 8.10977L12.3911 8.44482C12.2206 8.21333 11.985 7.98591 11.6845 7.76255C11.388 7.53919 11.0225 7.33613 10.588 7.15338C10.1575 6.97469 9.64988 6.83052 9.06508 6.72087C8.48434 6.61122 7.82238 6.55639 7.07919 6.55639L6.92081 6.55639C6.17762 6.55639 5.51363 6.61122 4.92883 6.72087C4.34809 6.83052 3.84045 6.97469 3.40591 7.15338C2.96731 7.33613 2.59775 7.53919 2.29722 7.76255C1.9967 7.98591 1.75912 8.21333 1.5845 8.44482L0.682927 8.10977C0.837249 7.76052 1.08904 7.40923 1.4383 7.05591C1.78349 6.70259 2.22209 6.37567 2.7541 6.07515C3.28204 5.77869 3.89527 5.53908 4.59379 5.35633C5.29636 5.17764 6.0761 5.0883 6.93299 5.0883Z" fill="white"/>
</svg>
