<svg width="12" height="14" viewBox="0 0 12 14" fill="none" xmlns="http://www.w3.org/2000/svg">
<path d="M8.02438 3.1516L7.79123 3.59392L8.02438 3.1516ZM10.9116 5.73304L10.6616 5.30002L10.9116 5.73304ZM11.2776 4.36701L10.8446 4.61701L11.2776 4.36701ZM10.3441 6.82806L9.84451 6.84749L10.3441 6.82806ZM10.8827 5.7497L10.6327 5.31669L10.8827 5.7497ZM11.2775 9.63297L10.8445 9.38297L11.2775 9.63297ZM10.9114 8.26694L11.1614 7.83393L10.9114 8.26694ZM9.55288 10.62L9.30288 11.0531L9.55288 10.62ZM10.9189 10.254L10.4859 10.004L10.9189 10.254ZM8.02438 10.8483L7.79123 10.406L8.02438 10.8483ZM3.97598 10.8484L3.74286 11.2907L3.97598 10.8484ZM1.08108 10.2541L0.648072 10.5041L1.08108 10.2541ZM1.08854 8.26706L0.838545 7.83405L1.08854 8.26706ZM0.722519 9.63309L0.289507 9.88309L0.722519 9.63309ZM1.65599 7.17198L1.15637 7.19142L1.65599 7.17198ZM1.08842 5.73305L0.838423 6.16606L1.08842 5.73305ZM2.4758 3.39658L2.2258 3.82959L2.4758 3.39658ZM2.47604 10.6035L2.72604 11.0365L2.47604 10.6035ZM3.68012 10.6773L3.9473 10.2546L3.68012 10.6773ZM5.64166 1.61284H6.35879V0.612844H5.64166V1.61284ZM5.14166 2.14499V2.11284H4.14166V2.14499H5.14166ZM3.94714 3.74535C4.03228 3.69151 4.11966 3.64094 4.2091 3.5938L3.74286 2.70914C3.6301 2.76857 3.51998 2.83231 3.41272 2.90012L3.94714 3.74535ZM2.19699 3.81295L2.2258 3.82959L2.7258 2.96356L2.69699 2.94693L2.19699 3.81295ZM1.15541 4.61702L1.51398 3.99597L0.64795 3.49597L0.289385 4.11702L1.15541 4.61702ZM1.36741 5.31677L1.33842 5.30003L0.838423 6.16606L0.867414 6.1828L1.36741 5.31677ZM2.15265 6.99994C2.15265 6.94888 2.15364 6.89807 2.15561 6.84754L1.15636 6.80871C1.15389 6.87217 1.15265 6.93592 1.15265 6.99994H2.15265ZM2.15561 7.15253C2.15364 7.10194 2.15265 7.05107 2.15265 6.99994H1.15265C1.15265 7.06404 1.1539 7.12787 1.15637 7.19142L2.15561 7.15253ZM1.33855 8.70007L1.36743 8.6834L0.867428 7.81737L0.838545 7.83405L1.33855 8.70007ZM1.5141 10.0041L1.15553 9.38309L0.289507 9.88309L0.648072 10.5041L1.5141 10.0041ZM2.22604 10.1704L2.19711 10.1872L2.69711 11.0532L2.72604 11.0365L2.22604 10.1704ZM4.2091 10.4061C4.11972 10.359 4.03239 10.3084 3.9473 10.2546L3.41293 11.0999C3.52012 11.1677 3.63017 11.2313 3.74286 11.2907L4.2091 10.4061ZM5.14166 11.8871V11.8549H4.14166V11.8871H5.14166ZM6.35879 12.3871H5.64166V13.3871H6.35879V12.3871ZM6.85879 11.8547V11.8871H7.85879V11.8547H6.85879ZM8.05284 10.2546C7.96781 10.3084 7.88055 10.3589 7.79123 10.406L8.25753 11.2906C8.37014 11.2312 8.48011 11.1676 8.58721 11.0999L8.05284 10.2546ZM9.80288 10.187L9.77411 10.1704L9.27411 11.0365L9.30288 11.0531L9.80288 10.187ZM10.8445 9.38297L10.4859 10.004L11.3519 10.504L11.7105 9.88297L10.8445 9.38297ZM10.6327 8.68335L10.6614 8.69995L11.1614 7.83393L11.1327 7.81733L10.6327 8.68335ZM9.84747 6.99994C9.84747 7.05106 9.84647 7.10192 9.8445 7.1525L10.8437 7.19138C10.8462 7.12785 10.8475 7.06403 10.8475 6.99994H9.84747ZM9.84451 6.84749C9.84647 6.89804 9.84747 6.94886 9.84747 6.99994H10.8475C10.8475 6.9359 10.8462 6.87213 10.8438 6.80864L9.84451 6.84749ZM10.6616 5.30002L10.6327 5.31669L11.1327 6.18271L11.1616 6.16605L10.6616 5.30002ZM10.486 3.99596L10.8446 4.61701L11.7106 4.11701L11.352 3.49596L10.486 3.99596ZM9.77425 3.82954L9.803 3.81295L9.303 2.94692L9.27425 2.96352L9.77425 3.82954ZM7.79123 3.59392C7.88058 3.64102 7.96788 3.69154 8.05293 3.74532L8.58733 2.90008C8.48019 2.83234 8.37018 2.76867 8.25753 2.70929L7.79123 3.59392ZM6.85879 2.11284V2.14516H7.85879V2.11284H6.85879ZM7.67364 6.99995C7.67364 7.92431 6.9243 8.67366 5.99994 8.67366V9.67366C7.47659 9.67366 8.67364 8.4766 8.67364 6.99995H7.67364ZM5.99994 5.32625C6.9243 5.32625 7.67364 6.07559 7.67364 6.99995H8.67364C8.67364 5.52331 7.47659 4.32625 5.99994 4.32625V5.32625ZM4.32623 6.99995C4.32623 6.07559 5.07558 5.32625 5.99994 5.32625V4.32625C4.52329 4.32625 3.32623 5.52331 3.32623 6.99995H4.32623ZM5.99994 8.67366C5.07558 8.67366 4.32623 7.92431 4.32623 6.99995H3.32623C3.32623 8.4766 4.52329 9.67366 5.99994 9.67366V8.67366ZM8.25753 2.70929C7.99636 2.57162 7.85879 2.34739 7.85879 2.14516H6.85879C6.85879 2.80685 7.28817 3.32874 7.79123 3.59392L8.25753 2.70929ZM11.1616 6.16605C11.879 5.75184 12.1248 4.83445 11.7106 4.11701L10.8446 4.61701C10.9826 4.85616 10.9007 5.16195 10.6616 5.30002L11.1616 6.16605ZM10.8438 6.80864C10.8323 6.51471 10.9576 6.28382 11.1327 6.18271L10.6327 5.31669C10.0604 5.64711 9.82241 6.27903 9.84451 6.84749L10.8438 6.80864ZM11.1327 7.81733C10.9576 7.71622 10.8323 7.48532 10.8437 7.19138L9.8445 7.1525C9.82238 7.72098 10.0604 8.35292 10.6327 8.68335L11.1327 7.81733ZM11.7105 9.88297C12.1247 9.16553 11.8789 8.24814 11.1614 7.83393L10.6614 8.69995C10.9006 8.83802 10.9825 9.14382 10.8445 9.38297L11.7105 9.88297ZM9.30288 11.0531C10.0203 11.4673 10.9377 11.2215 11.3519 10.504L10.4859 10.004C10.3478 10.2432 10.042 10.3251 9.80288 10.187L9.30288 11.0531ZM8.58721 11.0999C8.83622 10.9424 9.09895 10.9353 9.27411 11.0365L9.77411 10.1704C9.20104 9.83956 8.53411 9.95036 8.05284 10.2546L8.58721 11.0999ZM7.85879 11.8547C7.85879 11.6525 7.99636 11.4283 8.25753 11.2906L7.79123 10.406C7.28817 10.6711 6.85879 11.193 6.85879 11.8547H7.85879ZM6.35879 13.3871C7.18721 13.3871 7.85879 12.7155 7.85879 11.8871H6.85879C6.85879 12.1632 6.63493 12.3871 6.35879 12.3871V13.3871ZM4.14166 11.8871C4.14166 12.7155 4.81323 13.3871 5.64166 13.3871V12.3871C5.36551 12.3871 5.14166 12.1632 5.14166 11.8871H4.14166ZM3.74286 11.2907C4.00407 11.4284 4.14166 11.6526 4.14166 11.8549H5.14166C5.14166 11.1932 4.71222 10.6712 4.2091 10.4061L3.74286 11.2907ZM0.648072 10.5041C1.06229 11.2216 1.97967 11.4674 2.69711 11.0532L2.19711 10.1872C1.95796 10.3252 1.65217 10.2433 1.5141 10.0041L0.648072 10.5041ZM0.838545 7.83405C0.121106 8.24826 -0.124707 9.16565 0.289507 9.88309L1.15553 9.38309C1.01746 9.14394 1.0994 8.83815 1.33855 8.70007L0.838545 7.83405ZM1.15637 7.19142C1.16781 7.48536 1.04255 7.71627 0.867428 7.81737L1.36743 8.6834C1.93975 8.35297 2.17774 7.72102 2.15561 7.15253L1.15637 7.19142ZM0.867414 6.1828C1.04253 6.2839 1.16778 6.51478 1.15636 6.80871L2.15561 6.84754C2.1777 6.27909 1.93971 5.64718 1.36741 5.31677L0.867414 6.1828ZM0.289385 4.11702C-0.124828 4.83446 0.120984 5.75184 0.838423 6.16606L1.33842 5.30003C1.09928 5.16196 1.01734 4.85617 1.15541 4.61702L0.289385 4.11702ZM2.69699 2.94693C1.97955 2.53272 1.06216 2.77853 0.64795 3.49597L1.51398 3.99597C1.65205 3.75682 1.95784 3.67488 2.19699 3.81295L2.69699 2.94693ZM3.41272 2.90012C3.16371 3.05757 2.90097 3.0647 2.7258 2.96356L2.2258 3.82959C2.79889 4.16047 3.46586 4.04965 3.94714 3.74535L3.41272 2.90012ZM4.14166 2.14499C4.14166 2.34723 4.00407 2.57148 3.74286 2.70914L4.2091 3.5938C4.71222 3.32864 5.14166 2.80672 5.14166 2.14499H4.14166ZM9.27425 2.96352C9.09908 3.06465 8.83634 3.05752 8.58733 2.90008L8.05293 3.74532C8.53421 4.0496 9.20116 4.16042 9.77425 3.82954L9.27425 2.96352ZM6.35879 1.61284C6.63493 1.61284 6.85879 1.8367 6.85879 2.11284H7.85879C7.85879 1.28442 7.18721 0.612844 6.35879 0.612844V1.61284ZM2.72604 11.0365C2.9012 10.9353 3.16393 10.9425 3.41293 11.0999L3.9473 10.2546C3.46603 9.95038 2.79911 9.83959 2.22604 10.1704L2.72604 11.0365ZM11.352 3.49596C10.9378 2.77852 10.0204 2.53271 9.303 2.94692L9.803 3.81295C10.0421 3.67487 10.3479 3.75681 10.486 3.99596L11.352 3.49596ZM5.64166 0.612844C4.81323 0.612844 4.14166 1.28442 4.14166 2.11284H5.14166C5.14166 1.8367 5.36551 1.61284 5.64166 1.61284V0.612844Z" fill="#6E6E86"/>
</svg>
