<svg width="24" height="24" viewBox="0 0 24 24" fill="none" xmlns="http://www.w3.org/2000/svg">
<rect width="24" height="24" rx="4" fill="#445EDC"/>
<path d="M14.5142 19.1116C16.0323 18.6698 17.2666 17.8268 18.1703 16.7574C18.5418 16.317 18.3043 15.6196 17.7288 15.526C16.6326 15.3474 15.5899 14.9269 14.6764 14.2952C13.763 13.6634 13.0016 12.8362 12.4475 11.8736C11.8909 10.9125 11.5552 9.83957 11.4649 8.73259C11.3745 7.62562 11.5317 6.51242 11.9251 5.47376C12.1253 4.93227 11.6532 4.37043 11.0832 4.48221C10.2622 4.62592 9.44651 4.91432 8.68379 5.35468C4.73981 7.63173 3.63559 12.9455 6.61549 16.6315C8.48853 18.9573 11.6506 19.9479 14.5142 19.1116Z" fill="white"/>
</svg>
