<svg width="14" height="14" viewBox="0 0 14 14" fill="none" xmlns="http://www.w3.org/2000/svg">
<path d="M1 3.4H13M5.8 6.4V9.4M8.2 6.4V9.4M2.2 3.4H11.8L10.852 11.932C10.8195 12.2256 10.6798 12.4969 10.4598 12.694C10.2397 12.8911 9.95462 13 9.6592 13H4.3408C4.04538 13 3.76034 12.8911 3.54025 12.694C3.32016 12.4969 3.1805 12.2256 3.148 11.932L2.2 3.4ZM4.207 1.6882C4.30405 1.48238 4.45762 1.3084 4.6498 1.18655C4.84198 1.06469 5.06485 0.999997 5.2924 1H8.7076C8.93526 0.999884 9.15825 1.06453 9.35054 1.18639C9.54284 1.30824 9.69651 1.48229 9.7936 1.6882L10.6 3.4H3.4L4.207 1.6882V1.6882Z" stroke="white" stroke-width="1.5" stroke-linecap="round" stroke-linejoin="round"/>
</svg>
